<?xml version="1.0" standalone="no"?>
<!DOCTYPE svg PUBLIC "-//W3C//DTD SVG 20010904//EN"
 "http://www.w3.org/TR/2001/REC-SVG-20010904/DTD/svg10.dtd">
<svg version="1.0" xmlns="http://www.w3.org/2000/svg"
 width="58.000000pt" height="58.000000pt" viewBox="0 0 58.000000 58.000000"
 preserveAspectRatio="xMidYMid meet">

<g transform="translate(0.000000,58.000000) scale(0.100000,-0.100000)"
fill="#000000" stroke="none">
<path d="M11 526 c-9 -10 -11 -74 -9 -226 l3 -212 28 -24 c28 -24 28 -24 276
-24 179 0 250 3 259 12 16 16 15 23 -4 42 -13 14 -51 16 -255 16 l-239 0 0
199 c0 110 -3 206 -6 215 -8 20 -38 21 -53 2z"/>
<path d="M428 403 l-68 -67 -38 37 c-21 20 -45 37 -53 37 -24 0 -163 -146
-156 -164 14 -37 38 -29 98 30 l59 58 38 -37 c21 -20 45 -37 53 -37 8 0 53 38
99 85 72 72 83 88 74 103 -20 31 -38 23 -106 -45z"/>
</g>
</svg>
