<?xml version="1.0" standalone="no"?>
<!DOCTYPE svg PUBLIC "-//W3C//DTD SVG 20010904//EN"
 "http://www.w3.org/TR/2001/REC-SVG-20010904/DTD/svg10.dtd">
<svg version="1.0" xmlns="http://www.w3.org/2000/svg"
 width="556.000000pt" height="556.000000pt" viewBox="0 0 556.000000 556.000000"
 preserveAspectRatio="xMidYMid meet">

<g transform="translate(0.000000,556.000000) scale(0.100000,-0.100000)"
fill="#000000" stroke="none">
<path d="M377 5243 c-4 -3 -7 -370 -7 -815 l0 -808 815 0 815 0 0 815 0 815
-808 0 c-445 0 -812 -3 -815 -7z m1383 -808 l0 -585 -580 0 -580 0 0 578 c0
318 3 582 7 585 3 4 264 7 580 7 l573 0 0 -585z"/>
<path d="M830 4435 l0 -345 350 0 350 0 0 345 0 345 -350 0 -350 0 0 -345z"/>
<path d="M2937 5244 c-4 -4 -7 -162 -7 -351 l0 -343 230 0 230 0 0 230 0 230
-115 0 -114 0 -3 118 -3 117 -106 3 c-58 1 -108 -1 -112 -4z"/>
<path d="M3630 4435 l0 -815 815 0 815 0 -2 813 -3 812 -812 3 -813 2 0 -815z
m1395 0 l0 -580 -580 0 -580 0 -3 583 -2 582 582 -2 583 -3 0 -580z"/>
<path d="M4100 4435 l0 -345 345 0 345 0 0 345 0 345 -345 0 -345 0 0 -345z"/>
<path d="M2232 4898 l3 -113 118 -3 117 -3 0 -114 0 -115 -120 0 -121 0 3
-112 3 -113 230 0 230 0 0 340 0 340 -233 3 -233 2 3 -112z"/>
<path d="M2698 4203 l-3 -118 -232 -3 -233 -2 0 -230 0 -230 115 0 115 0 0
115 0 115 120 0 120 0 0 -230 0 -230 115 0 115 0 0 230 0 230 118 0 117 0 -1
-115 0 -115 113 0 113 0 0 230 0 230 -230 0 -230 0 0 120 0 120 -115 0 -114 0
-3 -117z"/>
<path d="M370 2920 l0 -460 115 0 115 0 0 230 0 230 115 0 115 0 0 -345 0
-345 120 0 120 0 0 115 0 115 110 0 110 0 0 115 0 115 -110 0 -110 0 0 115 0
115 110 0 110 0 0 108 c0 71 4 112 12 120 8 8 49 12 120 12 l108 0 0 110 0
110 -580 0 -580 0 0 -460z"/>
<path d="M1760 3270 l0 -110 120 0 120 0 0 -120 0 -120 -230 0 -230 0 0 -345
0 -345 343 -2 342 -3 3 -232 2 -233 350 0 350 0 0 -115 0 -114 117 -3 117 -3
1 -115 0 -115 118 -3 117 -3 0 -114 0 -115 -235 0 -235 0 0 -115 0 -115 104 0
c57 0 110 -2 118 -5 10 -4 13 -26 10 -91 -2 -48 -1 -97 2 -110 l6 -24 230 0
230 0 0 345 0 345 233 -2 232 -3 3 -112 3 -113 109 0 109 0 3 113 3 112 115 5
115 5 3 118 3 117 114 0 114 0 3 113 3 112 113 3 112 3 0 114 0 114 -112 3
-113 3 -3 113 -3 112 -114 0 -115 0 0 120 0 120 115 0 114 0 3 113 3 112 113
3 112 3 0 114 0 114 118 3 117 3 0 110 0 110 -117 3 -118 3 0 114 0 115 -115
0 -115 0 0 -115 0 -115 -115 0 -115 0 0 115 0 115 -115 0 -115 0 0 -115 0
-115 -120 0 -120 0 0 115 0 115 -115 0 -115 0 0 -115 0 -115 -115 0 -115 0 0
115 0 115 -115 0 -115 0 0 -230 0 -229 -117 -3 -118 -3 -2 -112 -1 -113 119 0
119 0 0 -115 0 -115 115 0 115 0 0 115 0 115 230 0 230 0 0 115 0 115 235 0
235 0 0 -115 0 -115 -230 0 -230 0 -2 -232 -3 -233 -117 -3 -118 -3 0 -349 0
-350 -115 0 -115 0 0 235 0 235 -465 0 -464 0 -3 113 -3 112 -117 3 -118 3 0
114 0 114 -112 3 -113 3 -5 115 -5 115 -112 3 -113 3 0 114 0 114 113 3 112 3
5 115 5 115 233 3 232 2 0 110 0 110 -470 0 -470 0 0 -110z m240 -700 l0 -121
-117 3 -118 3 -3 104 c-1 58 0 111 2 118 4 10 35 13 121 13 l115 0 0 -120z
m2560 -695 l0 -115 -235 0 -235 0 0 115 0 115 235 0 235 0 0 -115z"/>
<path d="M2930 3270 l0 -110 115 0 115 0 0 110 0 110 -115 0 -115 0 0 -110z"/>
<path d="M2698 3038 l-3 -113 -232 -3 -233 -2 0 -115 0 -115 350 0 350 0 0
230 0 230 -115 0 -114 0 -3 -112z"/>
<path d="M2700 2340 l0 -110 115 0 115 0 0 110 0 110 -115 0 -115 0 0 -110z"/>
<path d="M3162 2340 l-2 -110 115 0 115 0 0 110 0 110 -113 0 -113 0 -2 -110z"/>
<path d="M3630 2340 l0 -110 115 0 115 0 0 110 0 110 -115 0 -115 0 0 -110z"/>
<path d="M5030 2220 l0 -231 113 3 112 3 3 228 2 227 -115 0 -115 0 0 -230z"/>
<path d="M372 1178 l3 -813 812 -3 813 -2 0 815 0 815 -815 0 -815 0 2 -812z
m1388 -3 l0 -585 -580 0 -580 0 0 585 0 585 580 0 580 0 0 -585z"/>
<path d="M830 1175 l0 -345 350 0 350 0 0 345 0 345 -350 0 -350 0 0 -345z"/>
<path d="M2232 943 l3 -578 112 -3 112 -3 3 118 3 118 118 3 118 3 -3 112 -3
112 -117 3 -118 3 0 344 0 345 -115 0 -115 0 2 -577z"/>
<path d="M4560 1060 l0 -230 -230 0 -230 0 0 -115 0 -115 115 0 114 0 3 -117
3 -118 113 -3 112 -3 0 121 0 120 115 0 115 0 0 230 0 230 115 0 115 0 0 115
0 115 -230 0 -230 0 0 -230z"/>
<path d="M3860 945 l0 -115 115 0 115 0 0 115 0 115 -115 0 -115 0 0 -115z"/>
<path d="M2930 475 l0 -116 113 3 112 3 3 113 3 112 -116 0 -115 0 0 -115z"/>
<path d="M3630 475 l0 -115 228 2 227 3 3 113 3 112 -231 0 -230 0 0 -115z"/>
<path d="M4792 478 l3 -113 113 -3 112 -3 0 116 0 115 -115 0 -116 0 3 -112z"/>
</g>
</svg>
