<?xml version="1.0" standalone="no"?>
<!DOCTYPE svg PUBLIC "-//W3C//DTD SVG 20010904//EN"
 "http://www.w3.org/TR/2001/REC-SVG-20010904/DTD/svg10.dtd">
<svg version="1.0" xmlns="http://www.w3.org/2000/svg"
 width="59.000000pt" height="58.000000pt" viewBox="0 0 59.000000 58.000000"
 preserveAspectRatio="xMidYMid meet">

<g transform="translate(0.000000,58.000000) scale(0.100000,-0.100000)"
fill="#000000" stroke="none">
<path d="M29 521 c-24 -19 -24 -22 -27 -225 l-3 -206 25 -25 25 -25 244 0
c315 0 291 -15 295 187 3 139 2 150 -18 176 l-21 27 -237 2 c-203 3 -237 5
-237 18 0 13 34 16 227 20 234 5 254 9 246 46 -3 18 -19 19 -249 22 -231 2
-248 1 -270 -17z m482 -267 c9 -11 10 -20 2 -32 -24 -39 -82 -15 -68 28 8 24
47 27 66 4z"/>
</g>
</svg>
